<mxfile host="www.draw.io" modified="2019-11-11T22:33:32.548Z" agent="Mozilla/5.0 (Macintosh; Intel Mac OS X 10_14_6) AppleWebKit/605.1.15 (KHTML, like Gecko) Version/12.1.2 Safari/605.1.15" etag="hm9wcaPSGNqwnGFTYpwG" version="12.2.3" type="github" pages="1">
  <diagram id="9VwkEmP3wqvbAV9qxTcu" name="Page-1">
    <mxGraphModel dx="1243" dy="864" grid="1" gridSize="10" guides="1" tooltips="1" connect="1" arrows="1" fold="1" page="1" pageScale="1" pageWidth="827" pageHeight="1169" math="0" shadow="0">
      <root>
        <mxCell id="0"/>
        <mxCell id="1" parent="0"/>
        <mxCell id="MKImIRo95kQJKEtbUtot-3" value="" style="edgeStyle=orthogonalEdgeStyle;rounded=0;orthogonalLoop=1;jettySize=auto;html=1;strokeColor=#66B2FF;strokeWidth=5;" parent="1" source="MKImIRo95kQJKEtbUtot-1" target="MKImIRo95kQJKEtbUtot-2" edge="1">
          <mxGeometry relative="1" as="geometry"/>
        </mxCell>
        <mxCell id="MKImIRo95kQJKEtbUtot-1" value="&lt;font face=&quot;Times New Roman&quot; style=&quot;font-size: 20px&quot;&gt;Система разъюстирована&lt;/font&gt;" style="rounded=0;whiteSpace=wrap;html=1;strokeColor=#66B2FF;strokeWidth=5;" parent="1" vertex="1">
          <mxGeometry x="70" y="80" width="170" height="80" as="geometry"/>
        </mxCell>
        <mxCell id="SNTUSOlxbImxSfcfb9JJ-6" value="" style="edgeStyle=orthogonalEdgeStyle;rounded=0;orthogonalLoop=1;jettySize=auto;html=1;strokeColor=#007FFF;strokeWidth=4;" edge="1" parent="1" source="MKImIRo95kQJKEtbUtot-2" target="MKImIRo95kQJKEtbUtot-4">
          <mxGeometry relative="1" as="geometry"/>
        </mxCell>
        <mxCell id="MKImIRo95kQJKEtbUtot-2" value="&lt;font style=&quot;font-size: 20px&quot; face=&quot;Times New Roman&quot;&gt;Определить аберрации в системе&lt;/font&gt;" style="rounded=0;whiteSpace=wrap;html=1;strokeColor=#66B2FF;strokeWidth=5;" parent="1" vertex="1">
          <mxGeometry x="320" y="80" width="170" height="80" as="geometry"/>
        </mxCell>
        <mxCell id="MKImIRo95kQJKEtbUtot-34" style="edgeStyle=orthogonalEdgeStyle;rounded=0;orthogonalLoop=1;jettySize=auto;html=1;entryX=0.5;entryY=0;entryDx=0;entryDy=0;strokeColor=#66B2FF;strokeWidth=5;" parent="1" source="MKImIRo95kQJKEtbUtot-4" target="MKImIRo95kQJKEtbUtot-6" edge="1">
          <mxGeometry relative="1" as="geometry">
            <Array as="points">
              <mxPoint x="665" y="300"/>
              <mxPoint x="215" y="300"/>
            </Array>
          </mxGeometry>
        </mxCell>
        <mxCell id="MKImIRo95kQJKEtbUtot-4" value="&lt;font style=&quot;font-size: 20px&quot; face=&quot;Times New Roman&quot;&gt;Выбрать двигатель, отвечающий за аберрацию&lt;/font&gt;" style="rounded=0;whiteSpace=wrap;html=1;strokeColor=#66B2FF;strokeWidth=5;" parent="1" vertex="1">
          <mxGeometry x="570" y="75" width="190" height="90" as="geometry"/>
        </mxCell>
        <mxCell id="MKImIRo95kQJKEtbUtot-11" value="" style="edgeStyle=orthogonalEdgeStyle;rounded=0;orthogonalLoop=1;jettySize=auto;html=1;strokeColor=#66B2FF;strokeWidth=5;" parent="1" source="MKImIRo95kQJKEtbUtot-6" target="MKImIRo95kQJKEtbUtot-10" edge="1">
          <mxGeometry relative="1" as="geometry"/>
        </mxCell>
        <mxCell id="MKImIRo95kQJKEtbUtot-14" value="" style="edgeStyle=orthogonalEdgeStyle;rounded=0;orthogonalLoop=1;jettySize=auto;html=1;strokeColor=#66B2FF;strokeWidth=5;" parent="1" source="MKImIRo95kQJKEtbUtot-6" target="MKImIRo95kQJKEtbUtot-13" edge="1">
          <mxGeometry relative="1" as="geometry"/>
        </mxCell>
        <mxCell id="MKImIRo95kQJKEtbUtot-6" value="&lt;font face=&quot;Times New Roman&quot; style=&quot;font-size: 20px&quot;&gt;&lt;span&gt;Коэффициент &lt;/span&gt;&lt;br&gt;&lt;span&gt;&amp;nbsp;приемлем&lt;/span&gt;&lt;span&gt;?&lt;/span&gt;&lt;/font&gt;" style="rhombus;whiteSpace=wrap;html=1;strokeColor=#66B2FF;strokeWidth=5;" parent="1" vertex="1">
          <mxGeometry x="110" y="370" width="210" height="180" as="geometry"/>
        </mxCell>
        <mxCell id="MKImIRo95kQJKEtbUtot-12" style="edgeStyle=orthogonalEdgeStyle;rounded=0;orthogonalLoop=1;jettySize=auto;html=1;strokeColor=#66B2FF;strokeWidth=5;entryX=0;entryY=0.5;entryDx=0;entryDy=0;" parent="1" source="MKImIRo95kQJKEtbUtot-10" target="MKImIRo95kQJKEtbUtot-6" edge="1">
          <mxGeometry relative="1" as="geometry">
            <mxPoint x="40" y="360" as="targetPoint"/>
            <Array as="points">
              <mxPoint x="50" y="640"/>
              <mxPoint x="50" y="460"/>
            </Array>
          </mxGeometry>
        </mxCell>
        <mxCell id="MKImIRo95kQJKEtbUtot-10" value="&lt;font style=&quot;font-size: 20px&quot; face=&quot;Times New Roman&quot;&gt;Сместить выбранный двигатель&lt;/font&gt;" style="rounded=0;whiteSpace=wrap;html=1;strokeColor=#66B2FF;strokeWidth=5;" parent="1" vertex="1">
          <mxGeometry x="146" y="599.5" width="138" height="90" as="geometry"/>
        </mxCell>
        <mxCell id="MKImIRo95kQJKEtbUtot-16" value="" style="edgeStyle=orthogonalEdgeStyle;rounded=0;orthogonalLoop=1;jettySize=auto;html=1;strokeColor=#66B2FF;strokeWidth=5;" parent="1" source="MKImIRo95kQJKEtbUtot-13" target="MKImIRo95kQJKEtbUtot-15" edge="1">
          <mxGeometry relative="1" as="geometry"/>
        </mxCell>
        <mxCell id="MKImIRo95kQJKEtbUtot-13" value="&lt;font style=&quot;font-size: 20px&quot; face=&quot;Times New Roman&quot;&gt;Переход к компенсации расфокуса&lt;/font&gt;" style="rounded=0;whiteSpace=wrap;html=1;strokeColor=#66B2FF;strokeWidth=5;" parent="1" vertex="1">
          <mxGeometry x="370" y="420" width="160" height="80" as="geometry"/>
        </mxCell>
        <mxCell id="MKImIRo95kQJKEtbUtot-18" value="" style="edgeStyle=orthogonalEdgeStyle;rounded=0;orthogonalLoop=1;jettySize=auto;html=1;strokeColor=#66B2FF;strokeWidth=5;" parent="1" source="MKImIRo95kQJKEtbUtot-15" target="MKImIRo95kQJKEtbUtot-17" edge="1">
          <mxGeometry relative="1" as="geometry"/>
        </mxCell>
        <mxCell id="MKImIRo95kQJKEtbUtot-15" value="&lt;font style=&quot;font-size: 20px&quot; face=&quot;Times New Roman&quot;&gt;Получить изображение исследуемой точки&lt;/font&gt;" style="rounded=0;whiteSpace=wrap;html=1;strokeColor=#66B2FF;strokeWidth=5;" parent="1" vertex="1">
          <mxGeometry x="737" y="420" width="170" height="80" as="geometry"/>
        </mxCell>
        <mxCell id="MKImIRo95kQJKEtbUtot-20" style="edgeStyle=orthogonalEdgeStyle;rounded=0;orthogonalLoop=1;jettySize=auto;html=1;strokeColor=#66B2FF;strokeWidth=5;" parent="1" source="MKImIRo95kQJKEtbUtot-17" target="MKImIRo95kQJKEtbUtot-19" edge="1">
          <mxGeometry relative="1" as="geometry">
            <Array as="points">
              <mxPoint x="1087" y="570"/>
              <mxPoint x="947" y="570"/>
            </Array>
          </mxGeometry>
        </mxCell>
        <mxCell id="MKImIRo95kQJKEtbUtot-17" value="&lt;font style=&quot;font-size: 20px&quot; face=&quot;Times New Roman&quot;&gt;Выяснить, какой из шаговых двигателей отвечает за расфокусировку&lt;/font&gt;" style="rounded=0;whiteSpace=wrap;html=1;strokeColor=#66B2FF;strokeWidth=5;" parent="1" vertex="1">
          <mxGeometry x="991.5" y="405" width="190" height="110" as="geometry"/>
        </mxCell>
        <mxCell id="MKImIRo95kQJKEtbUtot-35" value="" style="edgeStyle=orthogonalEdgeStyle;rounded=0;orthogonalLoop=1;jettySize=auto;html=1;strokeColor=#66B2FF;strokeWidth=5;" parent="1" source="MKImIRo95kQJKEtbUtot-19" target="MKImIRo95kQJKEtbUtot-26" edge="1">
          <mxGeometry relative="1" as="geometry"/>
        </mxCell>
        <mxCell id="MKImIRo95kQJKEtbUtot-36" value="" style="edgeStyle=orthogonalEdgeStyle;rounded=0;orthogonalLoop=1;jettySize=auto;html=1;strokeColor=#66B2FF;strokeWidth=5;" parent="1" source="MKImIRo95kQJKEtbUtot-19" target="MKImIRo95kQJKEtbUtot-21" edge="1">
          <mxGeometry relative="1" as="geometry"/>
        </mxCell>
        <mxCell id="MKImIRo95kQJKEtbUtot-19" value="&lt;font style=&quot;font-size: 20px&quot; face=&quot;Times New Roman&quot;&gt;&lt;span style=&quot;white-space: normal&quot;&gt;Коэффициент&amp;nbsp;&lt;/span&gt;&lt;br style=&quot;white-space: normal&quot;&gt;&lt;span style=&quot;white-space: normal&quot;&gt;приемлем?&lt;/span&gt;&lt;/font&gt;" style="rhombus;whiteSpace=wrap;html=1;strokeColor=#66B2FF;strokeWidth=5;" parent="1" vertex="1">
          <mxGeometry x="847" y="631.5" width="200" height="180" as="geometry"/>
        </mxCell>
        <mxCell id="SNTUSOlxbImxSfcfb9JJ-9" value="" style="edgeStyle=orthogonalEdgeStyle;rounded=0;orthogonalLoop=1;jettySize=auto;html=1;strokeColor=#66B2FF;strokeWidth=4;entryX=0;entryY=0.5;entryDx=0;entryDy=0;" edge="1" parent="1" source="MKImIRo95kQJKEtbUtot-21" target="MKImIRo95kQJKEtbUtot-19">
          <mxGeometry relative="1" as="geometry">
            <mxPoint x="640" y="720" as="targetPoint"/>
            <Array as="points">
              <mxPoint x="800" y="899"/>
              <mxPoint x="800" y="722"/>
            </Array>
          </mxGeometry>
        </mxCell>
        <mxCell id="MKImIRo95kQJKEtbUtot-21" value="&lt;span style=&quot;white-space: normal&quot;&gt;&lt;font style=&quot;font-size: 20px&quot; face=&quot;Times New Roman&quot;&gt;Сместить выбранный двигатель&lt;/font&gt;&lt;/span&gt;" style="rounded=0;whiteSpace=wrap;html=1;strokeColor=#66B2FF;strokeWidth=5;" parent="1" vertex="1">
          <mxGeometry x="877" y="859" width="140" height="80" as="geometry"/>
        </mxCell>
        <mxCell id="MKImIRo95kQJKEtbUtot-28" value="" style="edgeStyle=orthogonalEdgeStyle;rounded=0;orthogonalLoop=1;jettySize=auto;html=1;strokeColor=#66B2FF;strokeWidth=5;" parent="1" source="MKImIRo95kQJKEtbUtot-26" target="MKImIRo95kQJKEtbUtot-27" edge="1">
          <mxGeometry relative="1" as="geometry"/>
        </mxCell>
        <mxCell id="MKImIRo95kQJKEtbUtot-26" value="&lt;span style=&quot;white-space: normal&quot;&gt;&lt;font style=&quot;font-size: 20px&quot; face=&quot;Times New Roman&quot;&gt;Система съюстирована, выход из цикла&lt;/font&gt;&lt;/span&gt;" style="rounded=0;whiteSpace=wrap;html=1;strokeColor=#66B2FF;strokeWidth=5;" parent="1" vertex="1">
          <mxGeometry x="1105" y="674" width="153" height="95" as="geometry"/>
        </mxCell>
        <mxCell id="MKImIRo95kQJKEtbUtot-27" value="&lt;span style=&quot;font-size: 20px ; white-space: normal&quot;&gt;&lt;font face=&quot;Times New Roman&quot;&gt;Получение интерферограммы,&lt;br&gt;финальная проверка&lt;/font&gt;&lt;/span&gt;" style="rounded=0;whiteSpace=wrap;html=1;strokeColor=#66B2FF;strokeWidth=5;" parent="1" vertex="1">
          <mxGeometry x="1330" y="674" width="170" height="95" as="geometry"/>
        </mxCell>
        <mxCell id="MKImIRo95kQJKEtbUtot-30" value="" style="rounded=0;whiteSpace=wrap;html=1;strokeColor=#66FF66;strokeWidth=5;fillColor=none;" parent="1" vertex="1">
          <mxGeometry x="30" y="230" width="650" height="480" as="geometry"/>
        </mxCell>
        <mxCell id="MKImIRo95kQJKEtbUtot-39" value="" style="rounded=0;whiteSpace=wrap;html=1;strokeColor=#66FF66;strokeWidth=5;fillColor=none;" parent="1" vertex="1">
          <mxGeometry x="700" y="350" width="830" height="610" as="geometry"/>
        </mxCell>
        <mxCell id="MKImIRo95kQJKEtbUtot-44" value="&lt;font style=&quot;font-size: 20px&quot; face=&quot;Times New Roman&quot;&gt;Первый этап: определение аберрации, выбор двигателя&lt;/font&gt;" style="text;html=1;strokeColor=none;fillColor=none;align=center;verticalAlign=middle;whiteSpace=wrap;rounded=0;" parent="1" vertex="1">
          <mxGeometry x="50" y="20" width="590" height="70" as="geometry"/>
        </mxCell>
        <mxCell id="MKImIRo95kQJKEtbUtot-45" value="&lt;font style=&quot;font-size: 20px&quot; face=&quot;Times New Roman&quot;&gt;Второй этап: коррекция аберраций, кроме расфокусировки&lt;/font&gt;" style="text;html=1;strokeColor=none;fillColor=none;align=center;verticalAlign=middle;whiteSpace=wrap;rounded=0;" parent="1" vertex="1">
          <mxGeometry x="80" y="220" width="571" height="80" as="geometry"/>
        </mxCell>
        <mxCell id="MKImIRo95kQJKEtbUtot-46" value="&lt;font style=&quot;font-size: 20px&quot; face=&quot;Times New Roman&quot;&gt;Третий этап: фокусировка&lt;/font&gt;" style="text;html=1;strokeColor=none;fillColor=none;align=center;verticalAlign=middle;whiteSpace=wrap;rounded=0;rotation=0;" parent="1" vertex="1">
          <mxGeometry x="730" y="320" width="280" height="100" as="geometry"/>
        </mxCell>
        <mxCell id="MKImIRo95kQJKEtbUtot-29" value="" style="rounded=0;whiteSpace=wrap;html=1;strokeColor=#66FF66;strokeWidth=5;fillColor=none;" parent="1" vertex="1">
          <mxGeometry x="40" y="30" width="775" height="150" as="geometry"/>
        </mxCell>
      </root>
    </mxGraphModel>
  </diagram>
</mxfile>
